<svg
    id="symbol-latcom-logo"
    xmlns="http://www.w3.org/2000/svg"
    version="1.1"
    viewBox="0 0 200 46.5"
    class="w-full h-auto"
>
    <!-- Generator: Adobe Illustrator 29.0.0, SVG Export Plug-In . SVG Version: 2.1.0 Build 186)  -->
    <defs>
    <style>
        .st0 {
        fill: #fff;
        }
    </style>
    </defs>
    <polygon
    id="l"
    class="st0"
    points="6.5 1.3 17.5 1.3 13.6 21.4 27.1 21.4 25.4 29.9 1 29.8 6.5 1.3"
    ></polygon>
    <path
    class="st0"
    d="M50.1,7.5h0l1.4,9.4h-6.3l4.9-9.4ZM28.5,29.9h10.9l3-6.2h9.3l.7,6.2h11.5L59.1,1.3h-15.1l-15.5,28.6Z"
    ></path>
    <polygon
    class="st0"
    points="95 9.8 85.3 9.8 81.4 29.9 70.4 29.9 74.3 9.8 64.7 9.8 66.3 1.3 96.6 1.4 95 9.8"
    ></polygon>
    <path
    class="st0"
    d="M117.3,29.4c-36.2,8-25.4-35.9,5.3-27.5l-1.5,7.5c-16.5-6.9-22.4,19.1-2.3,12.4l-1.5,7.6Z"
    ></path>
    <polygon
    class="st0"
    points="160.2 1.5 176.3 1.5 177 17.1 177.1 17.1 183.8 1.5 200 1.5 194.5 30.1 184.6 30.1 188.8 7.7 188.7 7.7 178.8 30.1 169.7 30.1 168.6 7.6 168.4 7.6 163.9 30.1 154.6 30.1 160.2 1.5"
    ></polygon>
    <g>
    <path
        class="st0"
        d="M5.3,35.7c6.5,0,4.8,10-1.1,9.5-6.6-.1-4.8-10,1.1-9.5M5.3,36.5c-4.8-.5-6.5,7.7-1.1,7.8,4.7.4,6.5-7.7,1.1-7.8"
    ></path>
    <path
        class="st0"
        d="M16.8,35.7c6.5,0,4.8,10-1.1,9.5-6.7,0-4.8-10,1.1-9.5M16.8,36.6c-4.8-.5-6.5,7.8-1.1,7.8,4.6.3,6.4-7.7,1.1-7.8"
    ></path>
    <polygon
        class="st0"
        points="23.9 35.9 24.7 36 24.2 39.6 28.8 39.6 29.4 36 30.2 36 29 45 28.1 45 28.7 40.5 24.1 40.5 23.5 44.9 22.6 44.9 23.9 35.9"
    ></polygon>
    <path
        class="st0"
        d="M40.7,36l3,9h-.9l-1-2.9h-3.8l-1.7,2.9h-1l5.2-9h.2ZM40.4,37.9l-1.9,3.3h3l-1.1-3.3Z"
    ></path>
    <path
        class="st0"
        d="M46.8,36c1.3,0,3.8,0,4.7.5,3.1,1.5,2.7,6.5-.2,8-1.1.7-4.3.5-5.8.5l1.3-9ZM47.5,36.9l-1,7.3c1.9,0,3.4.2,4.7-.7,3.4-3.1.9-7.5-3.7-6.6h0Z"
    ></path>
    <polygon
        class="st0"
        points="55.9 36 56.8 36 59 43.1 63.2 36 64.2 36 58.9 45 58.7 45 55.9 36"
    ></polygon>
    <polygon
        class="st0"
        points="70.9 36 70.8 36.9 66.8 36.9 66.4 39.8 70.4 39.8 70.3 40.7 66.3 40.7 65.8 44.2 69.8 44.2 69.7 45 64.8 45 66 36 70.9 36"
    ></polygon>
    <path
        class="st0"
        d="M73.4,36h2.3c4.1-.5,3.4,5.2-.3,4.7l2.7,4.3h-1l-2.7-4.3h-.7l-.5,4.3h-.9l1.1-9ZM74.2,36.9l-.4,3c1.6,0,3.8.3,3.9-1.7,0-1.7-2.3-1.2-3.5-1.3h0Z"
    ></path>
    <polygon
        class="st0"
        points="80.3 36 85.7 36 85.6 36.9 83.3 36.9 82.2 45 81.3 45 82.4 36.9 80.2 36.9 80.3 36"
    ></polygon>
    <polygon class="st0" points="87.2 36 88.1 36 86.9 45 86 45 87.2 36"
    ></polygon>
    <path
        class="st0"
        d="M94.8,37.7l-.8.2c-.6-2.3-3.6-.9-2.2,1.1.3.6,1.9,1.8,2.1,2.5,1.8,3.4-4,5.6-4.7,1.6l.8-.3c1.2,3.6,6,.5.9-3.5-.7-1-.5-2.3.4-3,1-.7,2.3-.5,3,.4.3.3.5.7.5,1"
    ></path>
    <polygon
        class="st0"
        points="97.4 36.1 98.3 36.1 97.1 45.1 96.2 45.1 97.4 36.1"
    ></polygon>
    <polygon
        class="st0"
        points="107.1 36.1 107.9 36.1 106.7 45.1 106.5 45.1 101.5 38.1 100.5 45.1 99.6 45.1 100.9 36.1 101.1 36.1 106.1 43 107.1 36.1"
    ></polygon>
    <path
        class="st0"
        d="M118.9,38l-.7.5c-2.2-3.4-7.7-1.6-7.6,2.3,0,4.3,6.6,4.8,7.5.7h-3.3v-.9h4.4c0,5.9-9.6,6.2-9.5.2-.2-4.7,6.5-6.8,9.2-2.8"
    ></path>
    <path
        class="st0"
        d="M130.3,37.8l-.9.2c-.6-2.3-3.6-.9-2.2,1.1.3.5,1.9,1.8,2.1,2.5,1.8,3.4-4,5.6-4.7,1.6l.8-.3c1.2,3.6,6,.6.9-3.5-.7-1-.5-2.3.4-3,1-.7,2.3-.5,3,.4.4.3.5.6.6,1"
    ></path>
    <path
        class="st0"
        d="M137.3,35.9c6.5,0,4.8,10-1.1,9.5-6.7-.1-4.8-10.1,1.1-9.5M137.3,36.7c-4.8-.5-6.5,7.8-1.1,7.8,4.7.4,6.4-7.7,1.1-7.8"
    ></path>
    <polygon
        class="st0"
        points="144.4 36.1 145.3 36.1 144.2 44.3 148.1 44.3 148 45.1 143.2 45.1 144.4 36.1"
    ></polygon>
    <path
        class="st0"
        d="M150.7,36.1h.9c.1,1.9-2.5,8.6,1,8.4,3.6,0,2.6-5.9,3.3-8.4h.9c-.7,2.5,0,8.2-3.1,9.1-6,1.5-3.3-6-3-9.1Z"
    ></path>
    <polygon
        class="st0"
        points="158.4 36.1 163.8 36.2 163.6 37 161.4 37 160.3 45.2 159.4 45.2 160.5 37 158.3 37 158.4 36.1"
    ></polygon>
    <polygon
        class="st0"
        points="165.3 36.2 166.2 36.2 165 45.2 164.1 45.2 165.3 36.2"
    ></polygon>
    <path
        class="st0"
        d="M173.1,36c6.5,0,4.8,10-1.1,9.5-6.7,0-4.8-10.1,1.1-9.5M173.1,36.8c-4.8-.5-6.5,7.8-1.1,7.8,4.6.4,6.4-7.6,1.1-7.8"
    ></path>
    <polygon
        class="st0"
        points="186.4 36.2 187.2 36.2 186 45.2 185.8 45.2 180.8 38.2 179.8 45.2 178.9 45.2 180.2 36.2 180.4 36.2 185.4 43.1 186.4 36.2"
    ></polygon>
    <path
        class="st0"
        d="M194.1,37.9l-.8.2c-.6-2.3-3.6-.9-2.2,1.1.3.6,1.9,1.8,2.1,2.5,1.8,3.4-4,5.6-4.7,1.6l.8-.3c1.1,3.6,6,.6.9-3.4-.7-1-.5-2.3.4-3,1-.7,2.3-.5,3,.4.3.2.5.5.5.9"
    ></path>
    </g>
    <path
    class="st0"
    d="M149.4,10.1c.1.1.3.2.5.1v-.5c.4-.2,1-.1,1.4.3q1.4-.1.7-1.4c-.8.3-1.3-.1-1.4-.9-.4,0-.4.8-.5,1.1-.4-.2-.8-.6-.7-1.1-.4-.3-.9-.7-1.5-.5.1.7.8.7,1.2,1-.2,0-.1.4-.1.6-.2.2-.6.2-.8,0h-.1c.2-.1.6-.1.6-.3-.2-.1-1.4-.6-1.4-1-.2.3-.5.6-.9.4-.3.4-.5.9-.7,1.4-.5.2-1.1.2-1.6,0-.6-1.3.2-1.5,1.3-1.4v-.4h-.3v-.6c1.6-.2.4-1.3,2.4-1.2v-.7c.1,0-.5.3-.5.3-.1-.3-.3-.6-.6-.5-.4-.8.9-.8,1-1.4-5.2-3.9-13.7-3.3-18.4,1.3.3,0,.9-.2,1.1,0,.2,0,.8,0,.7.3h1c0-.6-.8-.3-1.1-.3.1,0,.2-.3.1-.4h-.8c.4-.4,1-.7,1.6-.7.4.6,1,.7,1.4,0h.3c0,0-.5.7-.5.7-.6,0-.8,0-.6.6h.9c-.1-.4.5-.4.7-.5v-.4h-.4c-.1-.6,1-.5,1.3-.5-.2.3-.6.6-.4.9h.6c-.4-1,.6-1.1,1.3-1.3.4.2,1.7.2,1.5,1h.4c-.1.6-.4.6-.8.6v.5c-.1,0-1.3-.1-1.3-.1l1.1-.7-.5-.4c-.1,0-1,.2-1,.3-.1.3-.4.4-.7.4,0,0,.1.3.2.3h0c0,0-.4.2-.4.2v.2h-.4c0,0-.1-.3-.1-.3-.7.3-1.3.7-1.8,1.2.1.7.8.8,1.4.7v.8c.9-.2.1-.8,1.4-1.1-.3-1.4.1-1.5,1.4-1.3v.7c.2,0,.8-.4,1-.5,0,1.5.8.6.8,1.7l-.5.3c.1.4.9.2.8.7h-.2c-.3-.1-1.4-.1-.7-.6v-.3h-.3c.1.3-.3.3-.5.3h-.2c-.1-.4-.9-.4-.7.2.2,0,.4,0,.6,0-.1,0-.2.3-.3.3-.3-.5-.8.4-.9.5h.1c-.6.5-1.8,1.4-1.7,2.2-.7.6-1.5,1.1-1.1,2.1-.5-.1-.8-.2-.7-.8-.9,0-1.8.3-2.6.8-1,2,.3,2.5,1.7,1,.2.3,0,.8-.1,1.1h.9l.3,1.3c1.1.1,1.3.1,1.8-.9.4,0,1.1.1,1.3.5l.9-.2v-.3c.4,0,.9.7,1.1,1,1.1-.3,1.4.2,1.5,1.2.8.2,1.6.3,2.4.1.2.4.6.7,1.1.7.1.4-.4,1.1-.6,1.4,0,1.1.3,2.5-1.3,2.4-.3.4-.1,1,.1,1.4-.7,1-1,2.4-2.4,2.5v.3h.4c.1.3-.2.6-.3.7.2.2.4.3.7.2,0,.3,0,.6-.1,1,.2.2.9.4.7.8-.7.2-1.4-.1-1.8-.6-.6-.6-.9-1.4-.9-2.3-.7-.5-.6-1.1-.5-1.8h-.3c-.3-1.3.2-3-1.8-3.1.1-.4-1.2-1.5-1.4-1.7.1-.4.1-.9,0-1.3.7-.6.8-.7.5-1.5-2,.4-1.3-1.1-3.2-1v-.4h-.5v.2l-1.3-.2c-.2-.3-.8-.7-.4-1.1-.6-.5-1-1.2-1.2-1.9h-.8l.2.8c.2.2.8.8.7,1.1-.5.2-1-.7-1.2-1v-1.2c-.8-.1-.8-.4-.9-1.1-5.2,16,18.3,26.4,26.8,12.1h-.5c0-.5-.3-1.2-.8-1.6,0-1.8-.6-1-.7-2l.4-1.1c-.6-.8-1.5-1.8-1.3-3-.4,0-1.1.1-1.3-.3-.3,0-.8.1-.9.4h-1.1v.2c-.6.4-1.8-1.1-2.2-1.4l-.2-1.1c.3,0,.2-.4.3-.6h-.3l-.2-.5c2.8-2.2.3-1.6,2.1-2.7.5.1,1-.1,1.5-.4l1.7-.3v.9c.1,0,1.3.3,1.3.3ZM144.7,5.3c0-.2.4-.3.6-.4.1.5.4,1.2,1,1.2-.2.5-.8.5-1.2.6v-.5h.4c-.1-.5-.9-.4-.8-.9Z"
    ></path>
</svg>